<svg width="24" height="24" viewBox="0 0 24 24" fill="none" xmlns="http://www.w3.org/2000/svg">
<path d="M16.6909 12.0068C16.6909 11.6665 16.5664 11.3843 16.3008 11.1187L9.90918 4.86816C9.69336 4.65234 9.43604 4.55273 9.12891 4.55273C8.50635 4.55273 8 5.04248 8 5.66504C8 5.97217 8.13281 6.25439 8.35693 6.47852L14.0347 11.9985L8.35693 17.5352C8.13281 17.7593 8 18.0332 8 18.3486C8 18.9712 8.50635 19.4692 9.12891 19.4692C9.43604 19.4692 9.69336 19.3613 9.90918 19.1455L16.3008 12.895C16.5747 12.6294 16.6909 12.3472 16.6909 12.0068Z" fill="#000000" fill-opacity="0.3"/>
</svg>
