<svg width="27" height="26" viewBox="0 0 27 26" fill="none" xmlns="http://www.w3.org/2000/svg">
<path d="M22.1734 11.1308L14.0484 3.7472C13.8987 3.61017 13.703 3.53418 13.5 3.53418C13.297 3.53418 13.1013 3.61017 12.9516 3.7472L4.82656 11.1308C4.7448 11.208 4.67932 11.3008 4.63397 11.4037C4.58862 11.5066 4.56432 11.6176 4.5625 11.73V21.1245C4.5625 21.34 4.6481 21.5467 4.80048 21.6991C4.95285 21.8514 5.15951 21.937 5.375 21.937H21.625C21.8405 21.937 22.0472 21.8514 22.1995 21.6991C22.3519 21.5467 22.4375 21.34 22.4375 21.1245V11.73C22.4357 11.6176 22.4114 11.5066 22.366 11.4037C22.3207 11.3008 22.2552 11.208 22.1734 11.1308Z" stroke="#090909" stroke-width="3" stroke-linecap="round" stroke-linejoin="round"/>
</svg>
