<svg width="27" height="26" viewBox="0 0 27 26" fill="none" xmlns="http://www.w3.org/2000/svg">
  <path d="M13.5 8.9375C13.5 8.07555 13.8424 7.2489 14.4519 6.6394C15.0614 6.02991 15.888 5.6875 16.75 5.6875H23.25C23.4655 5.6875 23.6722 5.7731 23.8245 5.92548C23.9769 6.07785 24.0625 6.28451 24.0625 6.5V19.5C24.0625 19.7155 23.9769 19.9222 23.8245 20.0745C23.6722 20.2269 23.4655 20.3125 23.25 20.3125H16.75C15.888 20.3125 15.0614 20.6549 14.4519 21.2644C13.8424 21.8739 13.5 22.7005 13.5 23.5625" stroke="#DEB1E3" stroke-width="3" stroke-linecap="round" stroke-linejoin="round"/>
  <path d="M2.9375 19.5C2.9375 19.7155 3.0231 19.9222 3.17548 20.0745C3.32785 20.2269 3.53451 20.3125 3.75 20.3125H10.25C11.112 20.3125 11.9386 20.6549 12.5481 21.2644C13.1576 21.8739 13.5 22.7005 13.5 23.5625V8.9375C13.5 8.07555 13.1576 7.2489 12.5481 6.6394C11.9386 6.02991 11.112 5.6875 10.25 5.6875H3.75C3.53451 5.6875 3.32785 5.7731 3.17548 5.92548C3.0231 6.07785 2.9375 6.28451 2.9375 6.5V19.5Z" stroke="#DEB1E3" stroke-width="3" stroke-linecap="round" stroke-linejoin="round"/>
  </svg>
  