<svg viewBox="0 0 64 64" fill="none" xmlns="http://www.w3.org/2000/svg">
  <rect width="64" height="64" fill="url(#paint0_linear_10110_7327)" />
  <path d="M16.2539 32.5892C16.2539 37.9431 17.7852 41.8502 20.8476 44.3105C23.9101 46.7708 28.1279 48.0009 33.5009 48.0009C37.042 48.0009 40.0156 47.5186 42.4218 46.5541C44.8281 45.5756 46.6874 44.5132 47.9999 43.3669V30.7021H33.0498V36.5732H39.9609V40.641C39.0722 41.1443 38.122 41.4937 37.1103 41.6895C36.1123 41.8712 34.9228 41.962 33.542 41.962C30.8349 41.962 28.6748 41.3889 27.0615 40.2426C25.4619 39.0824 24.6621 36.8877 24.6621 33.6586V30.5762C24.6621 27.4729 25.3867 25.3342 26.8359 24.1599C28.2988 22.9717 30.1377 22.3776 32.3525 22.3776C34.7041 22.3776 36.4951 22.7271 37.7255 23.426C38.9697 24.111 39.6328 25.0965 39.7148 26.3826L39.7353 26.6342H47.9384V26.2987C47.9384 22.8459 46.5644 20.3088 43.8164 18.6872C41.082 17.0657 37.3632 16.2549 32.6601 16.2549C27.834 16.2549 23.8896 17.485 20.8271 19.9453C17.7783 22.4056 16.2539 26.3057 16.2539 31.6456V32.5892Z" fill="#090909" />
  <defs>
    <linearGradient id="paint0_linear_10110_7327" x1="0" y1="32" x2="64" y2="32" gradientUnits="userSpaceOnUse">
      <stop stop-color="#C5ACFF" />
      <stop offset="1" stop-color="#FBC2EB" />
    </linearGradient>
  </defs>
</svg>
  