<svg width="26" height="26" viewBox="0 0 26 26" fill="none" xmlns="http://www.w3.org/2000/svg">
  <path d="M13 23.5625V8.9375" stroke="#DEB1E3" stroke-width="3" stroke-linecap="round" stroke-linejoin="round"/>
  <path d="M13.4579 18.4031C14.2033 18.9108 15.0463 19.2579 15.9331 19.4221C16.82 19.5864 17.7313 19.5643 18.6091 19.3573C19.487 19.1502 20.3121 18.7628 21.0321 18.2195C21.752 17.6763 22.3511 16.9891 22.7911 16.2018C23.231 15.4145 23.5024 14.5442 23.5878 13.6463C23.6732 12.7485 23.5708 11.8427 23.2871 10.9865C23.0035 10.1303 22.5447 9.3426 21.9401 8.67336C21.3354 8.00412 20.5982 7.46804 19.7751 7.0992C19.5944 7.00835 19.4508 6.85758 19.3688 6.67264C18.8423 5.41831 17.9571 4.34741 16.8242 3.59431C15.6913 2.84121 14.3612 2.43945 13.0009 2.43945C11.6405 2.43945 10.3104 2.84121 9.17756 3.59431C8.04468 4.34741 7.15943 5.41831 6.63291 6.67264C6.55097 6.85758 6.40738 7.00835 6.22665 7.0992C5.40359 7.46804 4.6663 8.00412 4.06167 8.67336C3.45703 9.3426 2.99829 10.1303 2.71463 10.9865C2.43096 11.8427 2.32857 12.7485 2.41397 13.6463C2.49938 14.5442 2.7707 15.4145 3.2107 16.2018C3.65069 16.9891 4.24972 17.6763 4.96968 18.2195C5.68965 18.7628 6.51479 19.1502 7.39262 19.3573C8.27046 19.5643 9.18178 19.5864 10.0686 19.4221C10.9555 19.2579 11.7984 18.9108 12.5438 18.4031C12.6796 18.314 12.8385 18.2665 13.0009 18.2665C13.1633 18.2665 13.3221 18.314 13.4579 18.4031Z" stroke="#DEB1E3" stroke-width="3" stroke-linecap="round" stroke-linejoin="round"/>
  <path d="M13 15.4375L8.125 13" stroke="#DEB1E3" stroke-width="3" stroke-linecap="round" stroke-linejoin="round"/>
  <path d="M13 13L17.875 10.5625" stroke="#DEB1E3" stroke-width="3" stroke-linecap="round" stroke-linejoin="round"/>
  </svg>
  