<svg width="27" height="26" viewBox="0 0 27 26" fill="none" xmlns="http://www.w3.org/2000/svg">
  <path d="M13.5 23.5625V8.9375" stroke="#090909" stroke-width="3" stroke-linecap="round" stroke-linejoin="round"/>
  <path d="M13.9569 18.4031C14.7024 18.9108 15.5453 19.2579 16.4322 19.4221C17.319 19.5864 18.2303 19.5643 19.1081 19.3573C19.986 19.1502 20.8111 18.7628 21.5311 18.2195C22.2511 17.6763 22.8501 16.9891 23.2901 16.2018C23.7301 15.4145 24.0014 14.5442 24.0868 13.6463C24.1722 12.7485 24.0698 11.8427 23.7861 10.9865C23.5025 10.1303 23.0437 9.3426 22.4391 8.67336C21.8345 8.00412 21.0972 7.46804 20.2741 7.0992C20.0934 7.00835 19.9498 6.85758 19.8679 6.67264C19.3413 5.41831 18.4561 4.34741 17.3232 3.59431C16.1903 2.84121 14.8603 2.43945 13.4999 2.43945C12.1395 2.43945 10.8095 2.84121 9.67658 3.59431C8.5437 4.34741 7.65846 5.41831 7.13193 6.67264C7.04999 6.85758 6.9064 7.00835 6.72568 7.0992C5.90262 7.46804 5.16532 8.00412 4.56069 8.67336C3.95606 9.3426 3.49732 10.1303 3.21365 10.9865C2.92998 11.8427 2.82759 12.7485 2.913 13.6463C2.9984 14.5442 3.26973 15.4145 3.70972 16.2018C4.14971 16.9891 4.74874 17.6763 5.46871 18.2195C6.18867 18.7628 7.01381 19.1502 7.89165 19.3573C8.76948 19.5643 9.6808 19.5864 10.5676 19.4221C11.4545 19.2579 12.2974 18.9108 13.0429 18.4031C13.1786 18.314 13.3375 18.2665 13.4999 18.2665C13.6623 18.2665 13.8212 18.314 13.9569 18.4031Z" stroke="#090909" stroke-width="3" stroke-linecap="round" stroke-linejoin="round"/>
  <path d="M13.5 15.4375L8.625 13" stroke="#090909" stroke-width="3" stroke-linecap="round" stroke-linejoin="round"/>
  <path d="M13.5 13L18.375 10.5625" stroke="#090909" stroke-width="3" stroke-linecap="round" stroke-linejoin="round"/>
  </svg>
  